<?xml version="1.0" encoding="UTF-8" standalone="no"?>
<!DOCTYPE svg PUBLIC "-//W3C//DTD SVG 1.1//EN" "http://www.w3.org/Graphics/SVG/1.1/DTD/svg11.dtd">
<svg width="100%" height="100%" viewBox="0 0 538 50" version="1.1" xmlns="http://www.w3.org/2000/svg" xmlns:xlink="http://www.w3.org/1999/xlink" xml:space="preserve" xmlns:serif="http://www.serif.com/" style="fill-rule:evenodd;clip-rule:evenodd;stroke-linejoin:round;stroke-miterlimit:1.41421;">
    <g transform="matrix(1,0,0,1,-2038.28,-1727.18)">
        <g>
            <g transform="matrix(0.235294,0,0,0.235294,2038.28,1726.79)">
                <path d="M195.225,185.868C195.225,191.573 191.988,196.785 186.875,199.314C178.744,203.335 166.738,209.273 160.586,212.316C159.738,212.735 158.734,212.687 157.93,212.187C157.126,211.688 156.637,210.809 156.637,209.863C156.637,189.942 156.637,108.062 156.637,80.222C156.637,74.517 159.873,69.305 164.987,66.776C173.118,62.755 185.124,56.817 191.275,53.774C192.124,53.355 193.128,53.403 193.932,53.902C194.736,54.402 195.225,55.281 195.225,56.227C195.225,76.148 195.225,158.028 195.225,185.868ZM247.612,159.958C247.612,165.663 244.376,170.874 239.262,173.403C231.131,177.425 219.125,183.363 212.974,186.405C212.126,186.825 211.121,186.776 210.317,186.277C209.514,185.778 209.025,184.899 209.025,183.952C209.025,164.032 209.025,82.151 209.025,54.311C209.025,48.606 212.261,43.395 217.375,40.866C225.501,36.847 237.51,30.907 243.663,27.864C244.511,27.444 245.516,27.493 246.32,27.992C247.123,28.491 247.612,29.37 247.612,30.317C247.612,50.237 247.612,132.119 247.612,159.958ZM265.362,160.495C264.514,160.914 263.509,160.866 262.705,160.367C261.901,159.867 261.412,158.988 261.412,158.042C261.412,138.121 261.412,56.241 261.412,28.401C261.412,22.696 264.649,17.484 269.762,14.955C277.894,10.934 289.899,4.996 296.051,1.953C296.899,1.534 297.903,1.582 298.707,2.082C299.511,2.581 300,3.46 300,4.406C300,24.327 300,106.207 300,134.047C300,139.752 296.764,144.964 291.65,147.493C283.519,151.514 271.513,157.452 265.362,160.495Z" style="fill:rgb(255,162,8);"/>
            </g>
            <g transform="matrix(0.235294,0,0,0.235294,2038.28,1726.79)">
                <path d="M134.834,171.463C139.947,173.992 143.184,179.203 143.184,184.908C143.184,192.795 143.184,203.751 143.184,209.774C143.184,210.721 142.695,211.6 141.891,212.099C141.087,212.598 140.082,212.647 139.234,212.227C119.936,202.682 35.392,160.868 8.35,147.493C3.236,144.964 0,139.752 0,134.047C0,126.161 0,115.205 0,109.181C0,108.235 0.489,107.356 1.293,106.857C2.097,106.358 3.101,106.309 3.949,106.729C23.248,116.273 107.792,158.088 134.834,171.463ZM134.834,119.075C139.947,121.604 143.184,126.816 143.184,132.521C143.184,140.407 143.184,151.363 143.184,157.387C143.184,158.333 142.695,159.212 141.891,159.711C141.087,160.21 140.082,160.259 139.234,159.839C119.936,150.295 35.392,108.48 8.35,95.105C3.236,92.576 0,87.365 0,81.66C0,73.773 0,62.817 0,56.794C0,55.847 0.489,54.968 1.293,54.469C2.097,53.97 3.101,53.921 3.949,54.341C23.248,63.886 107.792,105.7 134.834,119.075ZM134.834,66.688C139.947,69.217 143.184,74.428 143.184,80.133C143.184,88.02 143.184,98.976 143.184,104.999C143.184,105.945 142.695,106.824 141.891,107.324C141.087,107.823 140.082,107.871 139.234,107.452C119.936,97.907 35.392,56.092 8.35,42.718C3.236,40.188 0,34.977 0,29.272C0,21.385 0,10.429 0,4.406C0,3.46 0.489,2.581 1.293,2.082C2.097,1.582 3.101,1.534 3.949,1.953C23.248,11.498 107.792,53.313 134.834,66.688Z" style="fill:white;"/>
            </g>
            <g id="Shape" transform="matrix(0.448854,0,0,0.448854,2129.55,1735.8)">
                <path d="M0.275,2.35L29.034,2.35C31.593,2.35 34.118,2.651 36.615,3.257C39.106,3.859 41.331,4.842 43.278,6.208C45.23,7.573 46.81,9.34 48.028,11.498C49.24,13.655 49.851,16.262 49.851,19.313C49.851,23.123 48.763,26.264 46.586,28.742C44.414,31.22 41.569,33.001 38.051,34.08L35.76,34.271C40.047,34.844 45.851,36.496 48.6,39.227C51.35,41.957 52.725,45.61 52.725,50.184C52.725,53.869 51.99,56.963 50.519,59.474C49.049,61.981 47.116,64 44.72,65.523C42.319,67.046 39.569,68.144 36.471,68.813C33.369,69.476 30.218,69.811 27.025,69.811L0.275,69.811L0.275,2.35ZM12.356,29.793L25.392,29.793C29.421,29.793 32.49,29 34.6,27.41C36.71,25.82 37.765,23.567 37.765,20.645C37.765,17.594 36.677,15.436 34.505,14.166C32.328,12.896 28.939,12.261 24.337,12.261L12.356,12.261L12.356,29.793ZM12.356,59.713L25.488,59.713C27.025,59.713 28.686,59.598 30.476,59.379C32.266,59.154 33.913,58.696 35.416,57.994C36.915,57.297 38.166,56.28 39.154,54.948C40.147,53.611 40.643,51.835 40.643,49.611C40.643,46.054 39.426,43.576 36.996,42.177C34.567,40.783 30.891,40.081 25.965,40.081L12.356,40.081L12.356,59.713Z" style="fill:white;"/>
            </g>
            <g id="Rectangle-path" transform="matrix(0.448854,0,0,0.448854,2129.55,1735.8)">
                <rect x="74.21" y="2.35" width="12.086" height="67.461" style="fill:white;"/>
            </g>
            <g id="Shape1" serif:id="Shape" transform="matrix(0.448854,0,0,0.448854,2129.55,1735.8)">
                <path d="M124.564,12.83L103.752,12.83L103.752,2.35L157.462,2.35L157.462,12.83L136.65,12.83L136.65,69.811L124.564,69.811L124.564,12.83Z" style="fill:white;"/>
            </g>
            <g id="Shape2" serif:id="Shape" transform="matrix(0.448854,0,0,0.448854,2129.55,1735.8)">
                <path d="M221.053,18.167C219.263,15.756 216.929,13.99 214.05,12.877C211.172,11.77 208.36,11.211 205.611,11.211C202.093,11.211 198.895,11.846 196.021,13.116C193.143,14.386 190.666,16.133 188.584,18.358C186.508,20.583 184.909,23.185 183.792,26.174C182.67,29.158 182.112,32.395 182.112,35.889C182.112,39.575 182.656,42.941 183.744,45.992C184.828,49.038 186.379,51.659 188.393,53.85C190.408,56.042 192.823,57.741 195.635,58.949C198.451,60.157 201.616,60.759 205.129,60.759C208.776,60.759 212.002,60.042 214.819,58.615C217.63,57.187 219.902,55.297 221.626,52.948L231.316,59.713C228.308,63.461 224.633,66.364 220.284,68.431C215.936,70.493 210.852,71.525 205.033,71.525C199.725,71.525 194.852,70.651 190.408,68.903C185.964,67.161 182.145,64.712 178.947,61.57C175.749,58.424 173.257,54.676 171.467,50.327C169.677,45.973 168.78,41.165 168.78,35.889C168.78,30.49 169.725,25.615 171.61,21.266C173.496,16.912 176.088,13.211 179.376,10.165C182.67,7.115 186.556,4.766 191.033,3.114C195.506,1.462 200.365,0.636 205.611,0.636C207.783,0.636 210.055,0.841 212.418,1.257C214.785,1.667 217.057,2.302 219.229,3.162C221.406,4.016 223.449,5.081 225.368,6.351C227.287,7.621 228.915,9.149 230.261,10.925L221.053,18.167Z" style="fill:white;"/>
            </g>
            <g id="Shape3" serif:id="Shape" transform="matrix(0.448854,0,0,0.448854,2129.55,1735.8)">
                <path d="M243.975,35.889C243.975,30.49 244.886,25.615 246.71,21.266C248.528,16.912 251.058,13.211 254.285,10.165C257.517,7.115 261.35,4.766 265.794,3.114C270.238,1.462 275.083,0.636 280.324,0.636C285.632,0.636 290.524,1.462 295.002,3.114C299.475,4.766 303.346,7.115 306.606,10.165C309.866,13.211 312.406,16.912 314.229,21.266C316.052,25.615 316.964,30.49 316.964,35.889C316.964,41.165 316.052,45.973 314.229,50.327C312.406,54.676 309.866,58.424 306.606,61.57C303.346,64.712 299.475,67.161 295.002,68.903C290.524,70.651 285.632,71.525 280.324,71.525C275.083,71.525 270.238,70.651 265.794,68.903C261.35,67.161 257.517,64.712 254.285,61.57C251.058,58.424 248.528,54.676 246.71,50.327C244.886,45.973 243.975,41.165 243.975,35.889ZM257.116,35.889C257.116,39.513 257.674,42.831 258.791,45.848C259.913,48.866 261.512,51.487 263.588,53.707C265.665,55.932 268.128,57.66 270.973,58.901C273.818,60.138 276.968,60.759 280.419,60.759C283.875,60.759 287.04,60.138 289.918,58.901C292.792,57.66 295.274,55.932 297.35,53.707C299.427,51.487 301.026,48.866 302.148,45.848C303.265,42.831 303.823,39.513 303.823,35.889C303.823,32.395 303.265,29.158 302.148,26.174C301.026,23.185 299.446,20.583 297.398,18.358C295.35,16.133 292.892,14.386 290.014,13.116C287.135,11.846 283.937,11.211 280.419,11.211C276.906,11.211 273.722,11.846 270.877,13.116C268.032,14.386 265.588,16.133 263.541,18.358C261.493,20.583 259.913,23.185 258.791,26.174C257.674,29.158 257.116,32.395 257.116,35.889Z" style="fill:white;"/>
            </g>
            <g id="Rectangle-path1" serif:id="Rectangle-path" transform="matrix(0.448854,0,0,0.448854,2129.55,1735.8)">
                <rect x="338.258" y="2.35" width="12.086" height="67.461" style="fill:white;"/>
            </g>
            <g id="Shape4" serif:id="Shape" transform="matrix(0.448854,0,0,0.448854,2129.55,1735.8)">
                <path d="M374.894,2.35L390.913,2.35L422.465,52.852L422.661,52.852L422.661,2.35L434.742,2.35L434.742,69.811L419.396,69.811L387.171,17.69L386.98,17.69L386.98,69.811L374.894,69.811L374.894,2.35Z" style="fill:white;"/>
            </g>
            <g id="Shape5" serif:id="Shape" transform="matrix(0.448854,0,0,0.448854,2345.22,1735.77)">
                <path d="M35.698,54.275L35.894,54.275L55.932,2.417L70.701,2.417L70.701,69.906L61.207,69.906L61.207,13.474L61.016,13.474L38.481,69.906L32.438,69.906L10.003,13.474L9.807,13.474L9.807,69.906L0.604,69.906L0.604,2.417L15.373,2.417L35.698,54.275Z" style="fill:rgb(255,162,8);"/>
            </g>
            <g id="Shape6" serif:id="Shape" transform="matrix(0.448854,0,0,0.448854,2345.22,1735.77)">
                <path d="M92.372,69.906L81.823,69.906L111.26,2.417L119.891,2.417L149.042,69.906L138.302,69.906L131.399,53.32L99.179,53.32L92.372,69.906ZM102.535,45.027L127.943,45.027L115.289,13.379L102.535,45.027Z" style="fill:rgb(255,162,8);"/>
            </g>
            <g id="Shape7" serif:id="Shape" transform="matrix(0.448854,0,0,0.448854,2344.35,1735.77)">
                <path d="M209.644,16.334C207.597,14.109 204.99,12.328 201.826,10.996C198.666,9.659 195.133,8.996 191.234,8.996C187.267,8.996 183.687,9.707 180.493,11.139C177.295,12.567 174.579,14.524 172.341,17.002C170.107,19.48 168.379,22.354 167.166,25.629C165.949,28.9 165.343,32.38 165.343,36.066C165.343,39.814 165.949,43.342 167.166,46.646C168.379,49.95 170.107,52.828 172.341,55.273C174.579,57.722 177.329,59.641 180.589,61.04C183.849,62.439 187.491,63.141 191.52,63.141C194.718,63.141 197.659,62.854 200.341,62.282C203.029,61.709 205.358,60.883 207.344,59.804L207.344,41.022L192.288,41.022L192.288,33.015L216.738,33.015L216.738,65.714C213.158,67.619 209.258,69.08 205.038,70.097C200.823,71.114 196.217,71.625 191.234,71.625C185.926,71.625 181.052,70.751 176.608,68.999C172.164,67.252 168.345,64.807 165.152,61.661C161.954,58.515 159.462,54.767 157.672,50.413C155.882,46.059 154.985,41.279 154.985,36.066C154.985,30.79 155.896,25.978 157.72,21.624C159.543,17.27 162.063,13.555 165.295,10.471C168.522,7.387 172.341,4.99 176.751,3.276C181.162,1.557 185.959,0.698 191.138,0.698C196.57,0.698 201.41,1.495 205.663,3.085C209.917,4.67 213.449,6.8 216.26,9.468L209.644,16.334Z" style="fill:rgb(255,162,8);"/>
            </g>
            <g id="Shape8" serif:id="Shape" transform="matrix(0.448854,0,0,0.448854,2344.35,1735.77)">
                <path d="M238.218,69.906L227.669,69.906L257.106,2.417L265.736,2.417L294.887,69.906L284.147,69.906L277.245,53.32L245.025,53.32L238.218,69.906ZM248.38,45.027L273.794,45.027L261.135,13.379L248.38,45.027Z" style="fill:rgb(255,162,8);"/>
            </g>
            <g id="Shape9" serif:id="Shape" transform="matrix(0.448854,0,0,0.448854,2345.6,1735.75)">
                <path d="M350.793,10.71L312.434,61.518L351.366,61.518L351.366,69.906L300.93,69.906L300.93,61.613L339.189,10.71L301.699,10.71L301.699,2.417L350.793,2.417L350.793,10.71Z" style="fill:rgb(255,162,8);"/>
            </g>
            <g id="Rectangle-path2" serif:id="Rectangle-path" transform="matrix(0.448854,0,0,0.448854,2345.29,1735.77)">
                <rect x="365.175" y="2.417" width="9.494" height="67.489" style="fill:rgb(255,162,8);"/>
            </g>
            <g id="Shape10" serif:id="Shape" transform="matrix(0.448854,0,0,0.448854,2344.82,1735.77)">
                <path d="M441.406,56.371L441.602,56.371L441.602,2.417L451.091,2.417L451.091,69.906L439.105,69.906L403.243,14.806L403.052,14.806L403.052,69.906L393.558,69.906L393.558,2.417L405.93,2.417L441.406,56.371Z" style="fill:rgb(255,162,8);"/>
            </g>
            <g id="Shape11" serif:id="Shape" transform="matrix(0.448854,0,0,0.448854,2344.35,1735.77)">
                <path d="M479.474,61.518L514.954,61.518L514.954,69.906L469.984,69.906L469.984,2.417L513.517,2.417L513.517,10.71L479.474,10.71L479.474,30.919L511.503,30.919L511.503,39.021L479.474,39.021L479.474,61.518Z" style="fill:rgb(255,162,8);"/>
            </g>
        </g>
    </g>
</svg>
